<svg id="visual" viewBox="0 0 900 600" width="900" height="600" xmlns="http://www.w3.org/2000/svg" xmlns:xlink="http://www.w3.org/1999/xlink" version="1.1"><rect x="0" y="0" width="900" height="600" fill="#FFF7F1"></rect><path d="M0 503L15 497.7C30 492.3 60 481.7 90 472.2C120 462.7 150 454.3 180 453.3C210 452.3 240 458.7 270 467.2C300 475.7 330 486.3 360 492.7C390 499 420 501 450 497.5C480 494 510 485 540 475.2C570 465.3 600 454.7 630 454.7C660 454.7 690 465.3 720 469.8C750 474.3 780 472.7 810 469C840 465.3 870 459.7 885 456.8L900 454L900 601L885 601C870 601 840 601 810 601C780 601 750 601 720 601C690 601 660 601 630 601C600 601 570 601 540 601C510 601 480 601 450 601C420 601 390 601 360 601C330 601 300 601 270 601C240 601 210 601 180 601C150 601 120 601 90 601C60 601 30 601 15 601L0 601Z" fill="#cba39d"></path><path d="M0 473L15 478C30 483 60 493 90 501.3C120 509.7 150 516.3 180 510.5C210 504.7 240 486.3 270 481.8C300 477.3 330 486.7 360 486.7C390 486.7 420 477.3 450 479.3C480 481.3 510 494.7 540 495.7C570 496.7 600 485.3 630 482.8C660 480.3 690 486.7 720 489.7C750 492.7 780 492.3 810 496C840 499.7 870 507.3 885 511.2L900 515L900 601L885 601C870 601 840 601 810 601C780 601 750 601 720 601C690 601 660 601 630 601C600 601 570 601 540 601C510 601 480 601 450 601C420 601 390 601 360 601C330 601 300 601 270 601C240 601 210 601 180 601C150 601 120 601 90 601C60 601 30 601 15 601L0 601Z" fill="#9b7881"></path><path d="M0 520L15 522.7C30 525.3 60 530.7 90 529.5C120 528.3 150 520.7 180 515.7C210 510.7 240 508.3 270 507C300 505.7 330 505.3 360 508.5C390 511.7 420 518.3 450 525.2C480 532 510 539 540 538C570 537 600 528 630 519.7C660 511.3 690 503.7 720 507.3C750 511 780 526 810 533.2C840 540.3 870 539.7 885 539.3L900 539L900 601L885 601C870 601 840 601 810 601C780 601 750 601 720 601C690 601 660 601 630 601C600 601 570 601 540 601C510 601 480 601 450 601C420 601 390 601 360 601C330 601 300 601 270 601C240 601 210 601 180 601C150 601 120 601 90 601C60 601 30 601 15 601L0 601Z" fill="#685264"></path><path d="M0 548L15 543.8C30 539.7 60 531.3 90 528.5C120 525.7 150 528.3 180 534.2C210 540 240 549 270 554.8C300 560.7 330 563.3 360 562.5C390 561.7 420 557.3 450 554.8C480 552.3 510 551.7 540 553.8C570 556 600 561 630 563C660 565 690 564 720 563C750 562 780 561 810 556.8C840 552.7 870 545.3 885 541.7L900 538L900 601L885 601C870 601 840 601 810 601C780 601 750 601 720 601C690 601 660 601 630 601C600 601 570 601 540 601C510 601 480 601 450 601C420 601 390 601 360 601C330 601 300 601 270 601C240 601 210 601 180 601C150 601 120 601 90 601C60 601 30 601 15 601L0 601Z" fill="#343044"></path><path d="M0 573L15 573.8C30 574.7 60 576.3 90 575C120 573.7 150 569.3 180 570.7C210 572 240 579 270 580.8C300 582.7 330 579.3 360 574.5C390 569.7 420 563.3 450 562C480 560.7 510 564.3 540 563.5C570 562.7 600 557.3 630 559.3C660 561.3 690 570.7 720 574.3C750 578 780 576 810 575C840 574 870 574 885 574L900 574L900 601L885 601C870 601 840 601 810 601C780 601 750 601 720 601C690 601 660 601 630 601C600 601 570 601 540 601C510 601 480 601 450 601C420 601 390 601 360 601C330 601 300 601 270 601C240 601 210 601 180 601C150 601 120 601 90 601C60 601 30 601 15 601L0 601Z" fill="#001122"></path></svg>